<?xml version="1.0" encoding="UTF-8"?><svg id="Layer_2" xmlns="http://www.w3.org/2000/svg" viewBox="0 0 22.01 26.5"><defs><style>.cls-1{fill:#63dae5;}.cls-2{fill:#1e4d6a;}</style></defs><g id="Layer_1-2"><g><path class="cls-1" d="M12.01,5c0-2.76,2.24-5,5-5s5,2.24,5,5-2.24,5-5,5-5-2.24-5-5Z"/><path class="cls-2" d="M5.51,26.5c-.27,0-.52-.1-.71-.29L.3,21.71c-.19-.19-.3-.44-.3-.71s.11-.52,.3-.71L10.3,10.29c.39-.39,1.03-.39,1.42,0s.39,1.03,0,1.42L2.42,21l3.8,3.79c.19,.19,.3,.44,.3,.71s-.11,.52-.3,.71c-.19,.19-.44,.29-.71,.29Z"/><path class="cls-2" d="M8.51,23.5c-.27,0-.52-.1-.71-.29l-4.5-4.5c-.39-.39-.39-1.03,0-1.42,.39-.39,1.03-.39,1.42,0l4.5,4.5c.19,.19,.3,.44,.3,.71s-.11,.52-.3,.71c-.19,.19-.44,.29-.71,.29Z"/></g></g></svg>