<svg version="1.2" xmlns="http://www.w3.org/2000/svg" xmlnsXlink="http://www.w3.org/1999/xlink" overflow="visible" preserveAspectRatio="none" viewBox="-7.497 0 49 49" width="72" height="72"><g><g xmlnsDefault="http://www.w3.org/2000/svg">
	<g>
		<path d="M17.5,14C7.8,14,0,21.9,0,31.5C0,41.1,7.8,49,17.5,49s17.5-7.8,17.5-17.5C34.9,21.9,27.1,14,17.5,14z M17.5,47    C8.9,47,2,40,2,31.5C2,23,8.9,16,17.5,16S32.9,23,32.9,31.5C32.9,40,26,47,17.5,47z M10.5,13c0.6,0,1-0.4,1-1V6.6    c0-2.7,1.9-4.6,4.6-4.6h2.8c2.7,0,4.7,2,4.7,4.6V12c0,0.6,0.4,1,1,1s1-0.4,1-1V6.6c0-3.8-2.9-6.6-6.7-6.6h-2.8    c-3.7,0-6.6,2.8-6.6,6.6V12C9.5,12.6,10,13,10.5,13z M17.5,27c-0.6,0-1,0.4-1,1v7c0,0.6,0.4,1,1,1s1-0.4,1-1v-7    C18.5,27.4,18.1,27,17.5,27z" style="fill: rgb(84, 198, 213);" vector-effect="non-scaling-stroke"/>
	</g>
</g></g></svg>