<?xml version="1.0" encoding="UTF-8"?><svg id="Layer_2" xmlns="http://www.w3.org/2000/svg" viewBox="0 0 26 27.5"><defs><style>.cls-1{fill:#63dae5;}.cls-2{fill:#1e4d6a;}</style></defs><g id="Layer_1-2"><g><path class="cls-1" d="M13,0c-1.93,0-3.5,1.57-3.5,3.5s1.57,3.5,3.5,3.5,3.5-1.57,3.5-3.5-1.57-3.5-3.5-3.5Z"/><path class="cls-1" d="M3.5,18c-1.93,0-3.5,1.57-3.5,3.5s1.57,3.5,3.5,3.5,3.5-1.57,3.5-3.5-1.57-3.5-3.5-3.5Z"/><path class="cls-1" d="M22.5,18c-1.93,0-3.5,1.57-3.5,3.5s1.57,3.5,3.5,3.5,3.5-1.57,3.5-3.5-1.57-3.5-3.5-3.5Z"/><path class="cls-2" d="M13,27.5c-2.1,0-4.16-.52-6-1.52-.49-.28-.66-.89-.38-1.38,.28-.49,.89-.66,1.38-.38,3.13,1.66,6.87,1.66,10,0,.49-.28,1.1-.11,1.38,.38,.28,.49,.11,1.1-.38,1.38-1.84,1-3.9,1.52-6,1.52Z"/><path class="cls-2" d="M1.6,17.5c-.51,0-.93-.37-1-.87-.07-.54-.1-1.09-.1-1.63,0-4.58,2.49-8.81,6.52-11,.48-.28,1.1-.11,1.38,.38,.28,.48,.11,1.1-.38,1.38-3.4,1.84-5.52,5.39-5.52,9.25,0,.46,.03,.92,.09,1.37,.07,.55-.31,1.05-.86,1.12h-.13Z"/><path class="cls-2" d="M24.4,17.5h-.13c-.55-.07-.93-.57-.86-1.12,.06-.46,.09-.92,.09-1.38,0-3.85-2.1-7.39-5.48-9.23-.48-.28-.65-.89-.38-1.38s.89-.65,1.38-.38c4.03,2.19,6.53,6.42,6.52,11,0,.55-.04,1.09-.11,1.63-.08,.5-.52,.87-1.03,.85Z"/></g></g></svg>