<?xml version="1.0" encoding="UTF-8"?><svg id="Layer_2" xmlns="http://www.w3.org/2000/svg" viewBox="0 0 30 23"><defs><style>.cls-1{fill:#63dae5;}.cls-2{fill:#1e4d6a;}</style></defs><g id="Layer_1-2"><g><path class="cls-1" d="M10.5,4.5c0-2.49,2.01-4.5,4.5-4.5s4.5,2.01,4.5,4.5-2.01,4.5-4.5,4.5-4.5-2.01-4.5-4.5Z"/><path class="cls-1" d="M20.34,4.48c0-1.92,1.56-3.48,3.48-3.48s3.48,1.56,3.48,3.48-1.56,3.48-3.48,3.48-3.48-1.56-3.48-3.48Z"/><path class="cls-1" d="M2.7,4.48c0-1.92,1.56-3.48,3.48-3.48s3.48,1.56,3.48,3.48-1.56,3.48-3.48,3.48-3.48-1.56-3.48-3.48Z"/><path class="cls-2" d="M29,19c-.55,0-1-.45-1-1,0-4-.29-7-4-7-1.59-.19-3.08,.79-3.52,2.33-.18,.52-.75,.8-1.27,.61s-.8-.75-.61-1.27c.73-2.33,2.97-3.86,5.41-3.67,6,0,6,5.85,6,9,0,.55-.45,1-1,1Z"/><path class="cls-2" d="M23,23c-.55,0-1-.45-1-1,0-1.5-.34-9-7-9s-7,7.5-7,9c0,.55-.45,1-1,1s-1-.45-1-1c0-5.08,2.36-11,9-11s9,5.92,9,11c0,.55-.45,1-1,1Z"/><path class="cls-2" d="M1,19c-.55,0-1-.45-1-1,0-3.15,0-9,6-9,2.44-.19,4.68,1.34,5.41,3.67,.18,.52-.09,1.09-.61,1.27s-1.09-.09-1.27-.61c-.44-1.54-1.93-2.52-3.52-2.33-3.71,0-4,3-4,7,0,.55-.45,1-1,1Z"/></g></g></svg>