<?xml version="1.0" encoding="UTF-8"?><svg id="Layer_2" xmlns="http://www.w3.org/2000/svg" viewBox="0 0 23 30"><defs><style>.cls-1{fill:#63dae5;}.cls-2{fill:#1e4d6a;}</style></defs><g id="Layer_1-2"><g><path class="cls-1" d="M7.67,22c0-2.21,1.72-4,3.83-4s3.83,1.79,3.83,4-1.72,4-3.83,4-3.83-1.79-3.83-4Z"/><path class="cls-2" d="M23,30H0V14H23V30ZM1.92,28H21.08v-12H1.92v12Z"/><path class="cls-2" d="M18.21,12c-.53,0-.96-.45-.96-1v-3c0-3.31-2.57-6-5.75-6s-5.75,2.69-5.75,6v3c0,.55-.43,1-.96,1s-.96-.45-.96-1v-3C3.83,3.58,7.27,0,11.5,0s7.67,3.58,7.67,8v3c0,.55-.43,1-.96,1Z"/></g></g></svg>