<?xml version="1.0" encoding="UTF-8"?><svg id="Layer_2" xmlns="http://www.w3.org/2000/svg" viewBox="0 0 29 22"><defs><style>.cls-1{fill:#63dae5;}.cls-2{fill:#1e4d6a;}</style></defs><g id="Layer_1-2"><g><path class="cls-1" d="M21,21c-.55,0-1-.45-1-1V6.95c0-.55,.45-1,1-1h7c.55,0,1,.45,1,1v13.05c0,.55-.45,1-1,1h-7Z"/><path class="cls-2" d="M17,16.98H0V0H24V3.01c0,.55-.45,1-1,1s-1-.45-1-1v-1H2V15.05h15c.55,0,1,.45,1,1s-.45,1-1,1v-.07Z"/><path class="cls-2" d="M11,21v-5.02h2v5.02h-2Z"/><path class="cls-2" d="M17,22H7c-.55,0-1-.45-1-1s.45-1,1-1h10c.55,0,1,.45,1,1s-.45,1-1,1Z"/></g></g></svg>