<?xml version="1.0" encoding="UTF-8"?><svg id="Layer_2" xmlns="http://www.w3.org/2000/svg" viewBox="0 0 22 30"><defs><style>.cls-1{fill:#63dae5;}.cls-2{fill:#1e4d6a;}</style></defs><g id="Layer_1-2"><g><path class="cls-1" d="M15,9.5c0-1.93,1.57-3.5,3.5-3.5s3.5,1.57,3.5,3.5-1.57,3.5-3.5,3.5-3.5-1.57-3.5-3.5Z"/><path class="cls-2" d="M11,30c-2.76,0-5-2.24-5-5v-1c0-.55,.45-1,1-1H15c.55,0,1,.45,1,1v1c0,2.76-2.24,5-5,5Zm-3-5c0,1.66,1.34,3,3,3s3-1.34,3-3h-6Z"/><path class="cls-2" d="M21,25H1c-.33,0-.64-.16-.83-.44-.19-.27-.22-.62-.1-.93l1.93-4.82v-6.81c0-3.81,2.41-7.21,6-8.48v-.52c0-1.66,1.34-3,3-3s3,1.34,3,3v.52c.52,.19,1.02,.42,1.5,.69,.48,.28,.65,.89,.37,1.37-.28,.48-.89,.65-1.37,.37-.55-.32-1.14-.56-1.75-.72-.45-.12-.76-.53-.75-1v-1.23c0-.55-.45-1-1-1s-1,.45-1,1v1.26c.01,.47-.3,.88-.75,1-3.08,.79-5.23,3.56-5.25,6.74v7c0,.13-.02,.25-.07,.37l-1.45,3.63H19.48l-1.41-3.63c-.05-.12-.07-.24-.07-.37v-4c0-.55,.45-1,1-1s1,.45,1,1v3.81l1.93,4.82c.12,.31,.08,.66-.1,.93-.19,.27-.5,.44-.83,.44Z"/></g></g></svg>