<?xml version="1.0" encoding="UTF-8"?><svg xmlns="http://www.w3.org/2000/svg" viewBox="0 0 70.92 71.04"><defs><style>.d{fill:#5ac5d3;}</style></defs><g id="a"/><g id="b"><g id="c"><path class="d" d="M44.13,71.04H26.8v-9.39c-1.27-.42-2.5-.93-3.7-1.52l-6.64,6.55-12.22-12.22,6.57-6.58c-.59-1.2-1.1-2.44-1.51-3.71H0V26.78H9.34c.42-1.27,.92-2.51,1.52-3.71l-6.57-6.58L16.52,4.23l6.58,6.59c1.19-.59,2.43-1.1,3.7-1.51V0h17.37V9.39c1.26,.42,2.5,.92,3.69,1.52l6.59-6.59,12.23,12.23-6.57,6.58c.6,1.2,1.1,2.44,1.52,3.71h9.29v17.32l-9.31,.03c-.42,1.27-.93,2.52-1.52,3.72l6.55,6.59-12.23,12.23-6.58-6.59c-1.19,.59-2.43,1.1-3.7,1.52v9.39Zm-14.33-3h11.33v-8.63l1.09-.31c1.8-.51,3.54-1.22,5.17-2.12l.99-.54,6.04,6.05,7.99-7.99-6.01-6.05,.54-.98c.9-1.63,1.61-3.37,2.12-5.17l.31-1.09,8.56-.03v-11.33h-8.54l-.31-1.09c-.51-1.8-1.22-3.54-2.12-5.17l-.54-.99,6.03-6.04-7.99-7.99-6.05,6.04-.99-.54c-1.63-.9-3.37-1.61-5.16-2.12l-1.09-.31V3h-11.37V11.56l-1.1,.31c-1.79,.5-3.53,1.21-5.16,2.11l-.99,.54-6.04-6.04-7.99,8.01,6.03,6.04-.54,.99c-.9,1.64-1.61,3.38-2.12,5.17l-.31,1.09H3v11.38H11.55l.31,1.1c.5,1.8,1.21,3.54,2.11,5.17l.54,.99-6.03,6.03,8,8,6.1-6.01,.98,.54c1.63,.9,3.37,1.61,5.16,2.12l1.09,.31v8.63Z"/><path class="d" d="M35.71,55.95c-10.58,0-19.2-8.6-19.21-19.18v-.05c.01-10.58,8.63-19.18,19.21-19.18h.01c10.58,0,19.2,8.62,19.2,19.21s-8.61,19.2-19.2,19.21h-.01Zm-16.21-19.19c.01,8.93,7.28,16.19,16.21,16.19h.01c8.93,0,16.2-7.28,16.2-16.21s-7.27-16.2-16.2-16.21h-.01c-8.93,0-16.2,7.26-16.21,16.19l-1.5,.05h1.5Z"/><path class="d" d="M35.46,37.75c3.1,0,5.62-2.52,5.62-5.62v-2.24c.09-2.06-.96-4.01-2.74-5.06s-3.98-1.06-5.76,0-2.82,3-2.74,5.06v2.24c0,1.49,.59,2.92,1.64,3.97,1.05,1.05,2.48,1.65,3.97,1.65Zm-3.37-7.86c0-1.86,1.51-3.37,3.37-3.37s3.37,1.51,3.37,3.37v2.24c0,1.86-1.51,3.37-3.37,3.37s-3.37-1.51-3.37-3.37v-2.24Z"/><path class="d" d="M39.57,38.87h-8.22c-3.1,0-5.61,2.52-5.61,5.62v1.12h2.26v-1.12c0-1.86,1.51-3.37,3.37-3.37h8.22c1.86,0,3.37,1.51,3.37,3.37v1.12h2.25v-1.12c0-1.49-.59-2.93-1.65-3.98-1.06-1.05-2.49-1.64-3.99-1.64Z"/></g></g></svg>